<svg xmlns="http://www.w3.org/2000/svg" version="1.1" width="512" height="512">
<path d="M0 0 C1.4240918 0.29003906 1.4240918 0.29003906 2.87695312 0.5859375 C32.4362514 6.66670743 61.5852817 17.96175143 86 36 C87.24449847 36.8871302 88.48931425 37.77381536 89.734375 38.66015625 C98.92507315 45.29232066 107.28862646 52.55425882 115.40771484 60.45458984 C116.77528763 61.7819029 118.16130336 63.09016686 119.55078125 64.39453125 C126.10868436 70.67287899 131.56278005 77.75686018 137 85 C137.42958008 85.56879883 137.85916016 86.13759766 138.30175781 86.72363281 C159.04090031 114.35985734 171.95547887 145.29647356 179 179 C179.18079102 179.82000488 179.36158203 180.64000977 179.54785156 181.48486328 C184.96936103 206.87326397 184.54137771 237.68232863 179 263 C178.70996094 264.4240918 178.70996094 264.4240918 178.4140625 265.87695312 C172.33329257 295.4362514 161.03824857 324.5852817 143 349 C142.1128698 350.24449847 141.22618464 351.48931425 140.33984375 352.734375 C133.70767934 361.92507315 126.44574118 370.28862646 118.54541016 378.40771484 C117.2180971 379.77528763 115.90983314 381.16130336 114.60546875 382.55078125 C108.32712101 389.10868436 101.24313982 394.56278005 94 400 C93.43120117 400.42958008 92.86240234 400.85916016 92.27636719 401.30175781 C64.64014266 422.04090031 33.70352644 434.95547887 0 442 C-0.82000488 442.18079102 -1.64000977 442.36158203 -2.48486328 442.54785156 C-27.87349879 447.96941117 -58.68170406 447.53095766 -84 442 C-84.84111328 441.82839355 -85.68222656 441.65678711 -86.54882812 441.47998047 C-130.06422876 432.52234005 -167.84576168 411.3390797 -200 381 C-200.8559375 380.19820313 -201.711875 379.39640625 -202.59375 378.5703125 C-209.47610135 371.92753667 -215.28257506 364.63910923 -221 357 C-221.42812988 356.43265137 -221.85625977 355.86530273 -222.29736328 355.28076172 C-243.0392189 327.64357587 -255.95496943 296.70596379 -263 263 C-263.18079102 262.17999512 -263.36158203 261.35999023 -263.54785156 260.51513672 C-268.96936103 235.12673603 -268.54137771 204.31767137 -263 179 C-262.70996094 177.5759082 -262.70996094 177.5759082 -262.4140625 176.12304688 C-256.33329257 146.5637486 -245.03824857 117.4147183 -227 93 C-226.1128698 91.75550153 -225.22618464 90.51068575 -224.33984375 89.265625 C-217.70767934 80.07492685 -210.44574118 71.71137354 -202.54541016 63.59228516 C-201.2180971 62.22471237 -199.90983314 60.83869664 -198.60546875 59.44921875 C-192.32712101 52.89131564 -185.24313982 47.43721995 -178 42 C-177.43120117 41.57041992 -176.86240234 41.14083984 -176.27636719 40.69824219 C-148.64014266 19.95909969 -117.70352644 7.04452113 -84 0 C-83.17999512 -0.18079102 -82.35999023 -0.36158203 -81.51513672 -0.54785156 C-56.12673603 -5.96936103 -25.31767137 -5.54137771 0 0 Z M-140 95 C-140.5779834 95.45987305 -141.1559668 95.91974609 -141.75146484 96.39355469 C-174.29239754 122.59304097 -195.65094846 160.21543116 -200.78065491 201.85479736 C-202.56355425 219.29161495 -202.43784532 239.02385728 -198 256 C-197.79600586 256.79470703 -197.59201172 257.58941406 -197.38183594 258.40820312 C-191.44772016 280.91810955 -181.74590304 301.88023434 -167 320 C-166.54222168 320.56460937 -166.08444336 321.12921875 -165.61279297 321.7109375 C-137.74662773 355.84722284 -98.37873557 375.91917198 -54.71875 380.46875 C-15.50174813 383.91459535 25.21457966 371.42544124 56 347 C58.64880579 344.74648322 61.22906727 342.44891021 63.76953125 340.07421875 C65.81160319 338.17519913 67.91451582 336.40162345 70.0625 334.625 C75.02382845 330.29130948 78.96709594 325.18417752 83 320 C83.74378906 319.071875 84.48757813 318.14375 85.25390625 317.1875 C99.40535347 299.07364756 108.31521872 278.14639911 114 256 C114.27118652 254.96262695 114.27118652 254.96262695 114.54785156 253.90429688 C119.68821159 233.15890749 119.39775501 206.64809672 114 186 C113.79600586 185.20529297 113.59201172 184.41058594 113.38183594 183.59179688 C104.76705374 150.91330721 86.94155548 119.11263291 60 98 C59.49162598 97.60103516 58.98325195 97.20207031 58.45947266 96.79101562 C39.94668351 82.40093271 19.58657081 72.24587825 -3 66 C-4.58554687 65.55333984 -4.58554687 65.55333984 -6.203125 65.09765625 C-52.03593435 53.7523426 -103.26485747 65.64239871 -140 95 Z " fill="#facc15" transform="translate(298,35)"/>
<path d="M0 0 C3.45521463 2.88338388 6.75001871 5.88843359 10 9 C10.74636719 9.68320313 11.49273437 10.36640625 12.26171875 11.0703125 C18.88236958 17.33277804 23.97963336 24.44348262 29 32 C29.6290625 32.93328125 30.258125 33.8665625 30.90625 34.828125 C48.23601593 62.39820716 52.95805078 98.79464759 45.83911133 130.37744141 C39.98202063 153.57300651 28.50045466 173.76553935 12 191 C10.97519531 192.11955078 10.97519531 192.11955078 9.9296875 193.26171875 C-5.49082957 209.56422111 -26.56860964 220.12210751 -48 226 C-49.17433594 226.33902344 -50.34867188 226.67804688 -51.55859375 227.02734375 C-83.2578933 234.56156938 -118.05348036 228.03281059 -146 212 C-154.69949737 206.49988511 -162.56848889 200.11500723 -170 193 C-171.11955078 191.97519531 -171.11955078 191.97519531 -172.26171875 190.9296875 C-178.88236958 184.66722196 -183.97963336 177.55651738 -189 170 C-189.6290625 169.06671875 -190.258125 168.1334375 -190.90625 167.171875 C-208.23601593 139.60179284 -212.95805078 103.20535241 -205.83911133 71.62255859 C-199.98202063 48.42699349 -188.50045466 28.23446065 -172 11 C-171.31679687 10.25363281 -170.63359375 9.50726563 -169.9296875 8.73828125 C-163.66722196 2.11763042 -156.55651738 -2.97963336 -149 -8 C-148.06671875 -8.6290625 -147.1334375 -9.258125 -146.171875 -9.90625 C-101.52913127 -37.9674032 -40.64920724 -32.24594625 0 0 Z M-98.4296875 30.8527832 C-101.38445562 34.89307947 -103.53557837 39.36788871 -105.8125 43.8125 C-115.0494233 61.22996206 -126.26489224 69.23115261 -143.44726562 78.41210938 C-150.05386738 82.07284804 -154.80552199 85.8203439 -158.3515625 92.57421875 C-159.97955098 98.66446481 -160.04542614 105.56592847 -157.4375 111.375 C-152.66669506 119.0822605 -145.02947278 122.79515038 -137.1875 126.8125 C-123.47070437 134.08686573 -115.11097218 141.64769849 -107.625 155.32421875 C-107.19316406 156.11127197 -106.76132813 156.8983252 -106.31640625 157.70922852 C-105.45988967 159.28104445 -104.61298499 160.85814925 -103.77734375 162.44116211 C-100.02733025 169.39933627 -95.79647948 176.03833954 -88.3359375 179.33984375 C-82.1809411 181.07929925 -75.51512774 181.04405078 -69.625 178.4375 C-61.91699905 173.67035842 -58.20379834 166.02742066 -54.1875 158.1875 C-44.9505767 140.77003794 -33.73510776 132.76884739 -16.55273438 123.58789062 C-9.94613262 119.92715196 -5.19447801 116.1796561 -1.6484375 109.42578125 C-0.02044902 103.33553519 0.04542614 96.43407153 -2.5625 90.625 C-7.33330494 82.9177395 -14.97052722 79.20484962 -22.8125 75.1875 C-36.52929563 67.91313427 -44.88902782 60.35230151 -52.375 46.67578125 C-52.80683594 45.88872803 -53.23867188 45.1016748 -53.68359375 44.29077148 C-54.54011033 42.71895555 -55.38701501 41.14185075 -56.22265625 39.55883789 C-59.97266975 32.60066373 -64.20352052 25.96166046 -71.6640625 22.66015625 C-82.53609817 19.58762443 -91.3777377 22.40605093 -98.4296875 30.8527832 Z " fill="#facc15" transform="translate(336,155)"/>
</svg>